<mxfile host="app.diagrams.net" agent="Mozilla/5.0 (Macintosh; Intel Mac OS X 10_15_7) AppleWebKit/537.36 (KHTML, like Gecko) Chrome/133.0.0.0 Safari/537.36" version="26.0.16">
  <diagram name="Page-1" id="i8wkr8u9tjY0ZxnuilSW">
    <mxGraphModel dx="2284" dy="761" grid="1" gridSize="10" guides="1" tooltips="1" connect="1" arrows="1" fold="1" page="1" pageScale="1" pageWidth="850" pageHeight="1100" math="0" shadow="0">
      <root>
        <mxCell id="0" />
        <mxCell id="1" parent="0" />
        <mxCell id="pBoyNUrMg_6SPfZmb3U6-129" value="" style="rounded=0;whiteSpace=wrap;html=1;fontFamily=Helvetica;fontSize=11;fontColor=default;labelBackgroundColor=default;" vertex="1" parent="1">
          <mxGeometry x="-15" y="40" width="845" height="660" as="geometry" />
        </mxCell>
        <mxCell id="pBoyNUrMg_6SPfZmb3U6-2" style="edgeStyle=orthogonalEdgeStyle;rounded=0;orthogonalLoop=1;jettySize=auto;html=1;entryX=0;entryY=0.5;entryDx=0;entryDy=0;startArrow=classic;startFill=1;" edge="1" parent="1" source="pBoyNUrMg_6SPfZmb3U6-1" target="pBoyNUrMg_6SPfZmb3U6-3">
          <mxGeometry relative="1" as="geometry">
            <mxPoint x="160" y="190" as="targetPoint" />
          </mxGeometry>
        </mxCell>
        <mxCell id="pBoyNUrMg_6SPfZmb3U6-1" value="User&lt;div&gt;&lt;br&gt;&lt;/div&gt;" style="shape=umlActor;verticalLabelPosition=bottom;verticalAlign=top;html=1;outlineConnect=0;" vertex="1" parent="1">
          <mxGeometry x="20" y="170" width="20" height="40" as="geometry" />
        </mxCell>
        <mxCell id="pBoyNUrMg_6SPfZmb3U6-4" style="edgeStyle=orthogonalEdgeStyle;rounded=0;orthogonalLoop=1;jettySize=auto;html=1;startArrow=classic;startFill=1;entryX=0;entryY=0.5;entryDx=0;entryDy=0;" edge="1" parent="1">
          <mxGeometry relative="1" as="geometry">
            <mxPoint x="240" y="180" as="targetPoint" />
            <mxPoint x="180" y="180" as="sourcePoint" />
          </mxGeometry>
        </mxCell>
        <mxCell id="pBoyNUrMg_6SPfZmb3U6-3" value="Streamlit UI" style="rounded=1;whiteSpace=wrap;html=1;fillColor=#f5f5f5;strokeColor=#666666;fontColor=#333333;" vertex="1" parent="1">
          <mxGeometry x="100" y="160" width="80" height="60" as="geometry" />
        </mxCell>
        <mxCell id="pBoyNUrMg_6SPfZmb3U6-65" style="edgeStyle=orthogonalEdgeStyle;rounded=0;orthogonalLoop=1;jettySize=auto;html=1;entryX=0;entryY=0.5;entryDx=0;entryDy=0;" edge="1" parent="1" source="pBoyNUrMg_6SPfZmb3U6-5" target="pBoyNUrMg_6SPfZmb3U6-46">
          <mxGeometry relative="1" as="geometry" />
        </mxCell>
        <mxCell id="pBoyNUrMg_6SPfZmb3U6-5" value="Prodizy Platform - Core Engine" style="rounded=1;whiteSpace=wrap;html=1;fillColor=#f5f5f5;strokeColor=#666666;fontColor=#333333;" vertex="1" parent="1">
          <mxGeometry x="240" y="160" width="215" height="60" as="geometry" />
        </mxCell>
        <mxCell id="pBoyNUrMg_6SPfZmb3U6-7" value="Invitation Store" style="shape=cylinder3;whiteSpace=wrap;html=1;boundedLbl=1;backgroundOutline=1;size=15;fillColor=#dae8fc;strokeColor=#6c8ebf;" vertex="1" parent="1">
          <mxGeometry x="673.75" y="150" width="60" height="80" as="geometry" />
        </mxCell>
        <mxCell id="pBoyNUrMg_6SPfZmb3U6-8" value="Session Store" style="shape=cylinder3;whiteSpace=wrap;html=1;boundedLbl=1;backgroundOutline=1;size=15;fillColor=#dae8fc;strokeColor=#6c8ebf;" vertex="1" parent="1">
          <mxGeometry x="673.75" y="50" width="60" height="80" as="geometry" />
        </mxCell>
        <mxCell id="pBoyNUrMg_6SPfZmb3U6-23" style="edgeStyle=orthogonalEdgeStyle;rounded=0;orthogonalLoop=1;jettySize=auto;html=1;startArrow=classic;startFill=1;" edge="1" parent="1" source="pBoyNUrMg_6SPfZmb3U6-12" target="pBoyNUrMg_6SPfZmb3U6-14">
          <mxGeometry relative="1" as="geometry" />
        </mxCell>
        <mxCell id="pBoyNUrMg_6SPfZmb3U6-39" style="edgeStyle=orthogonalEdgeStyle;rounded=0;orthogonalLoop=1;jettySize=auto;html=1;endArrow=classic;endFill=1;startArrow=classic;startFill=1;" edge="1" parent="1" source="pBoyNUrMg_6SPfZmb3U6-14" target="pBoyNUrMg_6SPfZmb3U6-40">
          <mxGeometry relative="1" as="geometry">
            <mxPoint x="660" y="320" as="targetPoint" />
          </mxGeometry>
        </mxCell>
        <mxCell id="pBoyNUrMg_6SPfZmb3U6-62" style="edgeStyle=orthogonalEdgeStyle;rounded=0;orthogonalLoop=1;jettySize=auto;html=1;startArrow=classic;startFill=1;" edge="1" parent="1" source="pBoyNUrMg_6SPfZmb3U6-14">
          <mxGeometry relative="1" as="geometry">
            <mxPoint x="660" y="390" as="targetPoint" />
            <Array as="points">
              <mxPoint x="580" y="390" />
              <mxPoint x="650" y="390" />
            </Array>
          </mxGeometry>
        </mxCell>
        <mxCell id="pBoyNUrMg_6SPfZmb3U6-80" style="edgeStyle=orthogonalEdgeStyle;rounded=0;orthogonalLoop=1;jettySize=auto;html=1;entryX=0.5;entryY=0;entryDx=0;entryDy=0;" edge="1" parent="1" source="pBoyNUrMg_6SPfZmb3U6-14" target="pBoyNUrMg_6SPfZmb3U6-72">
          <mxGeometry relative="1" as="geometry">
            <Array as="points">
              <mxPoint x="555" y="350" />
              <mxPoint x="555" y="350" />
            </Array>
          </mxGeometry>
        </mxCell>
        <mxCell id="pBoyNUrMg_6SPfZmb3U6-14" value="Connector Registry" style="rounded=1;whiteSpace=wrap;html=1;fillColor=#f5f5f5;strokeColor=#666666;fontColor=#333333;" vertex="1" parent="1">
          <mxGeometry x="495" y="290" width="120" height="60" as="geometry" />
        </mxCell>
        <mxCell id="pBoyNUrMg_6SPfZmb3U6-113" style="edgeStyle=orthogonalEdgeStyle;shape=connector;rounded=0;orthogonalLoop=1;jettySize=auto;html=1;strokeColor=default;align=center;verticalAlign=middle;fontFamily=Helvetica;fontSize=11;fontColor=default;labelBackgroundColor=default;endArrow=classic;startArrow=classic;startFill=1;" edge="1" parent="1" source="pBoyNUrMg_6SPfZmb3U6-15" target="pBoyNUrMg_6SPfZmb3U6-14">
          <mxGeometry relative="1" as="geometry" />
        </mxCell>
        <mxCell id="pBoyNUrMg_6SPfZmb3U6-123" style="edgeStyle=orthogonalEdgeStyle;shape=connector;rounded=0;orthogonalLoop=1;jettySize=auto;html=1;entryX=0.5;entryY=0;entryDx=0;entryDy=0;strokeColor=default;align=center;verticalAlign=middle;fontFamily=Helvetica;fontSize=11;fontColor=default;labelBackgroundColor=default;endArrow=classic;" edge="1" parent="1" source="pBoyNUrMg_6SPfZmb3U6-15" target="pBoyNUrMg_6SPfZmb3U6-17">
          <mxGeometry relative="1" as="geometry">
            <Array as="points">
              <mxPoint x="300" y="520" />
              <mxPoint x="240" y="520" />
            </Array>
          </mxGeometry>
        </mxCell>
        <mxCell id="pBoyNUrMg_6SPfZmb3U6-15" value="Decision System" style="rounded=1;whiteSpace=wrap;html=1;fillColor=#f8cecc;strokeColor=#b85450;" vertex="1" parent="1">
          <mxGeometry x="265" y="340" width="120" height="60" as="geometry" />
        </mxCell>
        <mxCell id="pBoyNUrMg_6SPfZmb3U6-45" style="edgeStyle=orthogonalEdgeStyle;rounded=0;orthogonalLoop=1;jettySize=auto;html=1;entryX=0.014;entryY=0.883;entryDx=0;entryDy=0;entryPerimeter=0;" edge="1" parent="1">
          <mxGeometry relative="1" as="geometry">
            <mxPoint x="241.01000000000022" y="201.98000000000002" as="targetPoint" />
            <mxPoint x="200" y="540" as="sourcePoint" />
            <Array as="points">
              <mxPoint x="210" y="540" />
              <mxPoint x="210" y="202" />
            </Array>
          </mxGeometry>
        </mxCell>
        <mxCell id="pBoyNUrMg_6SPfZmb3U6-94" style="edgeStyle=orthogonalEdgeStyle;rounded=0;orthogonalLoop=1;jettySize=auto;html=1;entryX=0;entryY=0.25;entryDx=0;entryDy=0;" edge="1" parent="1" source="pBoyNUrMg_6SPfZmb3U6-17" target="pBoyNUrMg_6SPfZmb3U6-60">
          <mxGeometry relative="1" as="geometry" />
        </mxCell>
        <mxCell id="pBoyNUrMg_6SPfZmb3U6-17" value="LLM Service" style="rounded=1;whiteSpace=wrap;html=1;fillColor=#f5f5f5;fontColor=#333333;strokeColor=#666666;" vertex="1" parent="1">
          <mxGeometry x="180" y="540" width="120" height="60" as="geometry" />
        </mxCell>
        <mxCell id="pBoyNUrMg_6SPfZmb3U6-40" value="Schema Store" style="shape=cylinder3;whiteSpace=wrap;html=1;boundedLbl=1;backgroundOutline=1;size=15;fillColor=#dae8fc;strokeColor=#6c8ebf;" vertex="1" parent="1">
          <mxGeometry x="673.75" y="280" width="60" height="80" as="geometry" />
        </mxCell>
        <mxCell id="pBoyNUrMg_6SPfZmb3U6-43" style="edgeStyle=orthogonalEdgeStyle;rounded=0;orthogonalLoop=1;jettySize=auto;html=1;startArrow=classic;startFill=1;" edge="1" parent="1" source="pBoyNUrMg_6SPfZmb3U6-5" target="pBoyNUrMg_6SPfZmb3U6-8">
          <mxGeometry relative="1" as="geometry">
            <mxPoint x="628" y="130" as="targetPoint" />
            <Array as="points">
              <mxPoint x="330" y="100" />
            </Array>
          </mxGeometry>
        </mxCell>
        <mxCell id="pBoyNUrMg_6SPfZmb3U6-46" value="AuthN" style="rounded=1;whiteSpace=wrap;html=1;fillColor=#d5e8d4;strokeColor=#82b366;" vertex="1" parent="1">
          <mxGeometry x="520" y="170" width="75" height="40" as="geometry" />
        </mxCell>
        <mxCell id="pBoyNUrMg_6SPfZmb3U6-60" value="RAG Engine" style="rounded=1;whiteSpace=wrap;html=1;fillColor=#f5f5f5;strokeColor=#666666;fontColor=#333333;" vertex="1" parent="1">
          <mxGeometry x="287.5" y="616" width="120" height="60" as="geometry" />
        </mxCell>
        <mxCell id="pBoyNUrMg_6SPfZmb3U6-63" value="Schema Discovery Service" style="rounded=1;whiteSpace=wrap;html=1;fillColor=#f5f5f5;strokeColor=#666666;fontColor=#333333;" vertex="1" parent="1">
          <mxGeometry x="660" y="370" width="110" height="40" as="geometry" />
        </mxCell>
        <mxCell id="pBoyNUrMg_6SPfZmb3U6-66" style="edgeStyle=orthogonalEdgeStyle;rounded=0;orthogonalLoop=1;jettySize=auto;html=1;entryX=0;entryY=0.5;entryDx=0;entryDy=0;entryPerimeter=0;" edge="1" parent="1" source="pBoyNUrMg_6SPfZmb3U6-46" target="pBoyNUrMg_6SPfZmb3U6-7">
          <mxGeometry relative="1" as="geometry">
            <mxPoint x="670" y="190" as="targetPoint" />
            <Array as="points" />
          </mxGeometry>
        </mxCell>
        <mxCell id="pBoyNUrMg_6SPfZmb3U6-127" style="edgeStyle=orthogonalEdgeStyle;shape=connector;rounded=0;orthogonalLoop=1;jettySize=auto;html=1;entryX=0.25;entryY=1;entryDx=0;entryDy=0;strokeColor=default;align=center;verticalAlign=middle;fontFamily=Helvetica;fontSize=11;fontColor=default;labelBackgroundColor=default;endArrow=classic;" edge="1" parent="1" source="pBoyNUrMg_6SPfZmb3U6-72" target="pBoyNUrMg_6SPfZmb3U6-63">
          <mxGeometry relative="1" as="geometry">
            <Array as="points">
              <mxPoint x="688" y="450" />
            </Array>
          </mxGeometry>
        </mxCell>
        <mxCell id="pBoyNUrMg_6SPfZmb3U6-72" value="MLflow, ServiceNow, Jira, Slack, Teams, Confluence, Tableau, etc.. or any NoSQL databases(metadata APIs)" style="rounded=1;whiteSpace=wrap;html=1;fillColor=#e1d5e7;strokeColor=#9673a6;" vertex="1" parent="1">
          <mxGeometry x="464.69" y="410" width="180.63" height="70" as="geometry" />
        </mxCell>
        <mxCell id="pBoyNUrMg_6SPfZmb3U6-79" style="edgeStyle=orthogonalEdgeStyle;rounded=0;orthogonalLoop=1;jettySize=auto;html=1;entryX=0.5;entryY=0;entryDx=0;entryDy=0;" edge="1" parent="1" source="pBoyNUrMg_6SPfZmb3U6-72" target="pBoyNUrMg_6SPfZmb3U6-81">
          <mxGeometry relative="1" as="geometry">
            <mxPoint x="559.04" y="517.0250000000001" as="targetPoint" />
            <Array as="points">
              <mxPoint x="550" y="470" />
              <mxPoint x="550" y="470" />
            </Array>
          </mxGeometry>
        </mxCell>
        <mxCell id="pBoyNUrMg_6SPfZmb3U6-107" style="edgeStyle=orthogonalEdgeStyle;shape=connector;rounded=0;orthogonalLoop=1;jettySize=auto;html=1;strokeColor=default;align=center;verticalAlign=middle;fontFamily=Helvetica;fontSize=11;fontColor=default;labelBackgroundColor=default;endArrow=classic;" edge="1" parent="1">
          <mxGeometry relative="1" as="geometry">
            <mxPoint x="550.75" y="560" as="sourcePoint" />
            <mxPoint x="550.75" y="606" as="targetPoint" />
            <Array as="points">
              <mxPoint x="547" y="560" />
              <mxPoint x="547" y="560" />
            </Array>
          </mxGeometry>
        </mxCell>
        <mxCell id="pBoyNUrMg_6SPfZmb3U6-126" style="edgeStyle=orthogonalEdgeStyle;shape=connector;rounded=0;orthogonalLoop=1;jettySize=auto;html=1;entryX=0.5;entryY=1;entryDx=0;entryDy=0;strokeColor=default;align=center;verticalAlign=middle;fontFamily=Helvetica;fontSize=11;fontColor=default;labelBackgroundColor=default;endArrow=none;startArrow=classic;startFill=1;" edge="1" parent="1" source="pBoyNUrMg_6SPfZmb3U6-81" target="pBoyNUrMg_6SPfZmb3U6-63">
          <mxGeometry relative="1" as="geometry" />
        </mxCell>
        <mxCell id="pBoyNUrMg_6SPfZmb3U6-81" value="Data Prioritization &amp;amp; Embeddings Generation" style="rounded=1;whiteSpace=wrap;html=1;fillColor=#f5f5f5;fontColor=#333333;strokeColor=#666666;" vertex="1" parent="1">
          <mxGeometry x="480" y="500" width="147.5" height="60" as="geometry" />
        </mxCell>
        <mxCell id="pBoyNUrMg_6SPfZmb3U6-85" value="Vector DB" style="shape=cylinder3;whiteSpace=wrap;html=1;boundedLbl=1;backgroundOutline=1;size=15;fillColor=#dae8fc;strokeColor=#6c8ebf;" vertex="1" parent="1">
          <mxGeometry x="520" y="606" width="60" height="80" as="geometry" />
        </mxCell>
        <mxCell id="pBoyNUrMg_6SPfZmb3U6-95" style="edgeStyle=orthogonalEdgeStyle;rounded=0;orthogonalLoop=1;jettySize=auto;html=1;entryX=0;entryY=0.5;entryDx=0;entryDy=0;entryPerimeter=0;endArrow=none;startFill=1;startArrow=classic;" edge="1" parent="1" source="pBoyNUrMg_6SPfZmb3U6-60" target="pBoyNUrMg_6SPfZmb3U6-85">
          <mxGeometry relative="1" as="geometry" />
        </mxCell>
        <mxCell id="pBoyNUrMg_6SPfZmb3U6-124" style="edgeStyle=orthogonalEdgeStyle;shape=connector;rounded=0;orthogonalLoop=1;jettySize=auto;html=1;strokeColor=default;align=center;verticalAlign=middle;fontFamily=Helvetica;fontSize=11;fontColor=default;labelBackgroundColor=default;endArrow=classic;" edge="1" parent="1" source="pBoyNUrMg_6SPfZmb3U6-100" target="pBoyNUrMg_6SPfZmb3U6-81">
          <mxGeometry relative="1" as="geometry" />
        </mxCell>
        <mxCell id="pBoyNUrMg_6SPfZmb3U6-100" value="Execution Results Store" style="shape=cylinder3;whiteSpace=wrap;html=1;boundedLbl=1;backgroundOutline=1;size=15;fillColor=#dae8fc;strokeColor=#6c8ebf;" vertex="1" parent="1">
          <mxGeometry x="365" y="490" width="60" height="80" as="geometry" />
        </mxCell>
        <mxCell id="pBoyNUrMg_6SPfZmb3U6-104" style="edgeStyle=orthogonalEdgeStyle;shape=connector;rounded=0;orthogonalLoop=1;jettySize=auto;html=1;entryX=0.5;entryY=0;entryDx=0;entryDy=0;entryPerimeter=0;strokeColor=default;align=center;verticalAlign=middle;fontFamily=Helvetica;fontSize=11;fontColor=default;labelBackgroundColor=default;endArrow=classic;" edge="1" parent="1" source="pBoyNUrMg_6SPfZmb3U6-72" target="pBoyNUrMg_6SPfZmb3U6-100">
          <mxGeometry relative="1" as="geometry">
            <Array as="points">
              <mxPoint x="395" y="450" />
            </Array>
          </mxGeometry>
        </mxCell>
        <mxCell id="pBoyNUrMg_6SPfZmb3U6-112" style="edgeStyle=orthogonalEdgeStyle;shape=connector;rounded=0;orthogonalLoop=1;jettySize=auto;html=1;strokeColor=default;align=center;verticalAlign=middle;fontFamily=Helvetica;fontSize=11;fontColor=default;labelBackgroundColor=default;endArrow=classic;startArrow=classic;startFill=1;" edge="1" parent="1" source="pBoyNUrMg_6SPfZmb3U6-12" target="pBoyNUrMg_6SPfZmb3U6-15">
          <mxGeometry relative="1" as="geometry" />
        </mxCell>
        <mxCell id="pBoyNUrMg_6SPfZmb3U6-12" value="LLM Connector Bridge" style="rounded=1;whiteSpace=wrap;html=1;fillColor=#f5f5f5;strokeColor=#666666;fontColor=#333333;" vertex="1" parent="1">
          <mxGeometry x="265" y="250" width="120" height="60" as="geometry" />
        </mxCell>
        <mxCell id="pBoyNUrMg_6SPfZmb3U6-111" style="edgeStyle=orthogonalEdgeStyle;shape=connector;rounded=0;orthogonalLoop=1;jettySize=auto;html=1;entryX=0.608;entryY=0.017;entryDx=0;entryDy=0;entryPerimeter=0;strokeColor=default;align=center;verticalAlign=middle;fontFamily=Helvetica;fontSize=11;fontColor=default;labelBackgroundColor=default;endArrow=classic;" edge="1" parent="1">
          <mxGeometry relative="1" as="geometry">
            <mxPoint x="326.96000000000004" y="220" as="sourcePoint" />
            <mxPoint x="326.96000000000004" y="251.01999999999998" as="targetPoint" />
            <Array as="points">
              <mxPoint x="327" y="220" />
              <mxPoint x="327" y="220" />
            </Array>
          </mxGeometry>
        </mxCell>
        <mxCell id="pBoyNUrMg_6SPfZmb3U6-117" style="edgeStyle=orthogonalEdgeStyle;shape=connector;rounded=0;orthogonalLoop=1;jettySize=auto;html=1;entryX=0.313;entryY=-0.017;entryDx=0;entryDy=0;entryPerimeter=0;strokeColor=default;align=center;verticalAlign=middle;fontFamily=Helvetica;fontSize=11;fontColor=default;labelBackgroundColor=default;endArrow=classic;startArrow=none;startFill=0;endFill=1;" edge="1" parent="1" source="pBoyNUrMg_6SPfZmb3U6-15" target="pBoyNUrMg_6SPfZmb3U6-60">
          <mxGeometry relative="1" as="geometry" />
        </mxCell>
        <mxCell id="pBoyNUrMg_6SPfZmb3U6-121" value="Knowledge Cache" style="shape=cylinder3;whiteSpace=wrap;html=1;boundedLbl=1;backgroundOutline=1;size=15;fillColor=#dae8fc;strokeColor=#6c8ebf;" vertex="1" parent="1">
          <mxGeometry x="280" y="430" width="60" height="80" as="geometry" />
        </mxCell>
      </root>
    </mxGraphModel>
  </diagram>
</mxfile>
